<?xml version="1.0" encoding="UTF-8" standalone="no"?>
<!-- Created with Inkscape (http://www.inkscape.org/) -->

<svg
   version="1.1"
   id="svg1"
   width="341"
   height="341"
   viewBox="0 0 341 341"
   sodipodi:docname="hs-wedding-logo-black-square-341x341.svg"
   inkscape:version="1.3.2 (091e20e, 2023-11-25)"
   inkscape:export-filename="hs-wedding-logo-black-square-150x150.png"
   inkscape:export-xdpi="24.87747"
   inkscape:export-ydpi="24.87747"
   xmlns:inkscape="http://www.inkscape.org/namespaces/inkscape"
   xmlns:sodipodi="http://sodipodi.sourceforge.net/DTD/sodipodi-0.dtd"
   xmlns="http://www.w3.org/2000/svg"
   xmlns:svg="http://www.w3.org/2000/svg">
  <defs
     id="defs1" />
  <sodipodi:namedview
     id="namedview1"
     pagecolor="#ffffff"
     bordercolor="#000000"
     borderopacity="0.25"
     inkscape:showpageshadow="2"
     inkscape:pageopacity="0.0"
     inkscape:pagecheckerboard="0"
     inkscape:deskcolor="#d1d1d1"
     inkscape:zoom="1.6302446"
     inkscape:cx="211.31798"
     inkscape:cy="176.3539"
     inkscape:window-width="1680"
     inkscape:window-height="936"
     inkscape:window-x="0"
     inkscape:window-y="25"
     inkscape:window-maximized="0"
     inkscape:current-layer="g1" />
  <g
     inkscape:groupmode="layer"
     inkscape:label="Image"
     id="g1"
     transform="translate(-174.49765,-164.64)">
    <path
       style="fill:#000000;stroke-width:0.586051"
       d="m 366.98531,504.54068 c -28.00656,-3.39869 -53.59389,-29.03127 -50.3385,-58.30714 -0.8989,-23.63351 25.07043,-47.39776 48.18927,-35.74016 15.67213,6.68765 2.94788,23.71701 -8.19408,11.19253 -18.30133,-2.89123 -26.86443,19.65798 -23.74529,34.48348 3.6896,28.72633 39.26727,46.93372 64.41244,32.38356 23.1535,-13.86484 23.12829,-47.55623 9.02299,-67.89906 -3.1295,-8.88764 -10.71495,-11.48066 -19.21094,-12.8592 -19.9567,-6.00475 -36.6947,-25.29254 -59.18643,-20.08328 -11.212,3.86995 -27.33206,6.98717 -34.49884,15.64215 0.17293,26.31905 -0.47671,52.66678 0.63666,78.96149 -1.7729,14.54336 33.99838,9.37156 17.3145,20.51744 -23.92196,0.27421 -47.89782,0.59174 -71.795,-0.42486 -9.66196,-14.25365 26.74349,-3.37611 21.84347,-22.17498 0.72972,-21.9376 0.26601,-43.89832 0.39671,-65.84654 15.63336,-1.26635 30.48372,-21.91054 17.58295,-34.91395 -10.12164,-11.18679 -34.22222,6.54754 -27.76574,14.26107 7.3144,-5.65019 35.26779,-1.66068 17.41506,7.09869 -8.14882,7.93755 -27.25758,-5.9309 -26.08329,9.97653 3.32322,9.30196 -5.69098,25.94175 -9.628,8.9382 0.51206,-12.83747 9.50636,-23.90333 -6.33895,-30.82922 -10.5561,-6.85363 -6.8425,-27.10737 5.32064,-12.69607 4.27887,5.26104 10.66486,22.35812 12.59341,5.42079 6.04516,-17.91062 -13.87433,-34.92698 -30.65072,-26.09915 -12.272,1.72581 -26.15484,-8.68917 -29.93958,-18.7061 12.44566,-11.10523 36.88474,-12.82527 44.73933,4.55539 3.88994,2.31541 19.98037,19.88449 17.92499,9.96485 -1.21472,-8.93852 -2.24726,-21.78629 -10.39632,-26.74297 -17.40604,-4.36138 -29.80769,-21.09125 -28.65395,-39.05546 -1.7607,-11.66231 0.14202,-27.08525 14.37018,-15.68983 18.50658,7.51179 31.17148,28.49913 24.75795,48.22406 0.34458,10.73465 6.47354,15.99507 8.04473,2.30718 3.73543,-10.3827 26.96456,2.92443 29.96986,-15.51772 11.50873,-15.73678 -18.89362,-27.27297 -15.97994,-6.08097 3.40872,16.64233 -17.51595,9.17181 -10.01387,-3.87017 1.49182,-15.88742 24.53366,-22.27451 33.06314,-8.55764 9.85146,10.01818 -10.19401,32.35492 11.16489,26.57699 10.12265,-1.73755 33.07756,6.40436 24.825,-11.62823 -3.44454,-39.74518 33.81278,-74.86741 72.74365,-73.41319 8.05475,2.05713 3.66614,-7.74233 4.72544,-12.35077 -0.31504,-10.38656 0.48799,-21.04179 -0.5257,-31.26046 -0.34908,-12.52761 -33.57214,-6.37749 -17.79927,-18.12806 24.20148,-0.59 48.4204,-0.18903 72.62968,-0.30306 10.52962,16.17017 -26.19882,3.1013 -22.90065,21.98185 -1.14597,66.69669 -0.0928,133.42312 -0.38419,200.13152 -10.11982,-12.44842 -20.39476,-24.77022 -30.68513,-37.07824 -0.2712,-8.83769 0.67769,-17.79291 -0.74048,-26.53625 -11.06394,-0.37962 -22.13992,-0.012 -33.2089,0.0279 20.06145,26.81593 43.24593,51.2898 61.91822,79.11221 17.00713,27.28132 12.11025,66.37369 -13.55083,86.59344 -14.57811,12.49346 -34.62943,16.80314 -53.39057,14.4414 z m 23.14901,-107.50805 c -18.45373,-24.41843 -40.772,-46.13112 -55.96787,-72.91768 -17.38618,-0.004 -34.77236,-0.008 -52.15854,-0.012 -6.61777,4.57279 -22.74263,21.55208 -20.23669,5.15265 -1.16189,-5.24723 -7.66009,11.33857 -6.65004,16.11737 1.12601,6.4127 -3.105,25.23915 2.82462,21.48427 13.92539,-7.30642 13.92258,-25.92259 29.56937,-31.00222 10.23146,-6.13466 44.47837,2.15166 26.01924,15.90233 -10.5736,18.72066 -33.29895,5.29733 -46.35246,16.22014 8.45527,0.35408 23.60318,3.77475 25.36316,16.2134 2.15056,13.97585 21.69359,-7.93761 31.67145,-6.53385 18.90396,-5.09451 37.25859,3.62023 52.67686,13.83469 4.15948,1.77996 8.80824,6.0211 13.2409,5.5409 z m -94.6565,-44.78646 c 19.4779,-10.54275 -12.3211,-10.72077 -14.53298,0.60101 4.54788,1.91248 10.03095,1.03744 14.53298,-0.60101 z m -75.49965,-7.2371 c -3.43049,-12.35901 -30.83435,-4.93016 -9.909,0.43516 3.27711,0.17829 6.71977,0.55049 9.909,-0.43516 z m 19.51462,-36.55652 c 2.75402,-11.27798 -15.79252,-32.82444 -21.67933,-25.23824 -1.81082,12.88921 8.7259,30.15142 20.6086,31.30726 0.93702,-1.85649 0.94354,-4.0554 1.07073,-6.06902 z m 166.10918,3.58604 c 0.11739,-24.14424 1.33587,-48.582 -0.57128,-72.55968 -22.68081,-3.58786 -50.14174,10.37355 -51.92798,35.17088 -1.59836,13.48155 3.24834,28.98972 12.33473,38.31581 13.356,-0.36641 27.06549,0.91842 40.16453,-0.92701 z m 39.19915,91.79759 c -5.64533,-11.48912 21.80176,-6.35892 29.51788,-8.22017 7.85405,1.39007 35.59027,-4.9317 27.25475,9.31968 -17.63312,1.7733 -35.63575,-0.54802 -53.06471,3.31372 -1.96244,-0.61923 -2.35973,-3.20236 -3.70792,-4.41323 z m -248.11441,0.97428 c -6.99947,-12.87064 13.57537,-7.90389 21.38427,-8.89735 18.24308,10.45355 -15.53813,11.2228 -21.38427,8.89735 z m 249.73133,-50.93179 c 0.9466,-12.24598 16.64773,-23.1291 16.62659,-37.98852 4.50092,-21.64692 -1.57434,-45.3451 -18.39105,-60.23243 -2.67487,-5.0411 -0.46471,-12.01049 -1.18852,-17.82174 25.72294,15.12107 39.98155,46.85439 32.6776,76.03314 -3.58435,15.92652 -11.4266,34.45349 -27.06236,41.31609 l -1.42434,-0.36309 -1.23779,-0.94345 z m 31.33087,-5.28575 c -8.72178,-12.31997 12.19529,-8.59959 19.78743,-9.27164 9.05924,-1.96369 7.50377,13.18818 -1.21647,9.97195 -6.18817,-0.11357 -12.44516,0.33478 -18.57096,-0.70031 z M 289.62658,272.43991 c -10.11175,-9.55119 -32.08869,10.27367 -27.73731,-8.9769 -0.5011,-26.33344 0.23078,-52.70083 -0.87491,-79.01365 0.0632,-14.49591 -31.81738,-3.87152 -20.77442,-18.06367 24.35816,-1.03816 48.78603,-0.30975 73.17498,-0.51888 10.14861,13.86019 -18.49279,5.33381 -19.58184,17.6885 -0.43544,30.11885 -0.42567,60.35539 -0.69022,90.51942 -1.17209,-0.54494 -2.34419,-1.08988 -3.51628,-1.63482 z"
       id="path1" />
  </g>
</svg>
